<svg width="87" height="86" viewBox="0 0 87 86" fill="none" xmlns="http://www.w3.org/2000/svg">
<mask id="mask0_4525_3140" style="mask-type:luminance" maskUnits="userSpaceOnUse" x="0" y="0" width="87" height="86">
<path d="M0.748047 0.000419617H86.3453V85.5977H0.748047V0.000419617Z" fill="white"/>
</mask>
<g mask="url(#mask0_4525_3140)">
<path fill-rule="evenodd" clip-rule="evenodd" d="M45.427 83.0879V73.057C45.427 69.2484 42.3393 66.1607 38.5307 66.1607H28.4998C24.6912 66.1607 21.6035 69.2484 21.6035 73.057H25.3651C25.3651 71.3258 26.7686 69.9223 28.4998 69.9223H38.5307C40.2618 69.9223 41.6654 71.3258 41.6654 73.057V83.0879H45.427Z" fill="#333333"/>
<path fill-rule="evenodd" clip-rule="evenodd" d="M65.4895 83.0879V73.057C65.4895 69.2484 62.4018 66.1607 58.5932 66.1607H48.5623C44.7537 66.1607 41.666 69.2484 41.666 73.057H45.4276C45.4276 71.3258 46.8311 69.9223 48.5623 69.9223H58.5932C60.3243 69.9223 61.7279 71.3258 61.7279 73.057V83.0879H65.4895Z" fill="#333333"/>
<path fill-rule="evenodd" clip-rule="evenodd" d="M55.4602 68.041V58.0101C55.4602 54.2013 52.3725 51.1138 48.5639 51.1138H38.533C34.7244 51.1138 31.6367 54.2013 31.6367 58.0101H35.3983C35.3983 56.2788 36.8018 54.8754 38.533 54.8754H48.5639C50.2951 54.8754 51.6986 56.2788 51.6986 58.0101V68.041H55.4602Z" fill="#333333"/>
<path fill-rule="evenodd" clip-rule="evenodd" d="M1.37695 84.9688H85.7203V73.057C85.7203 69.2484 82.6327 66.1608 78.8241 66.1608H68.6259C64.8173 66.1608 61.7297 69.2484 61.7297 73.057H65.4913C65.4913 71.3259 66.8948 69.9224 68.6259 69.9224H78.8241C80.5552 69.9224 81.9587 71.3259 81.9587 73.057V81.2072H25.3676V73.057C25.3676 69.2484 22.2799 66.1608 18.4713 66.1608H8.27321C4.4646 66.1608 1.37695 69.2484 1.37695 73.057V84.9688ZM21.606 81.2072H5.13855V73.057C5.13855 71.3259 6.54208 69.9224 8.27321 69.9224H18.4713C20.2025 69.9224 21.606 71.3259 21.606 73.057V81.2072Z" fill="#333333"/>
<path fill-rule="evenodd" clip-rule="evenodd" d="M11.5742 58.0101V68.041H15.3358V58.0101C15.3358 56.2788 16.7393 54.8754 18.4705 54.8754H28.5014C30.2326 54.8754 31.6361 56.2788 31.6361 58.0101V68.041H35.3977V58.0101C35.3977 54.2013 32.31 51.1138 28.5014 51.1138H18.4705C14.6619 51.1138 11.5742 54.2013 11.5742 58.0101Z" fill="#333333"/>
<path fill-rule="evenodd" clip-rule="evenodd" d="M75.5207 68.041V58.0101C75.5207 54.2013 72.433 51.1138 68.6245 51.1138H58.5935C54.785 51.1138 51.6973 54.2013 51.6973 58.0101H55.4589C55.4589 56.2788 56.8623 54.8754 58.5935 54.8754H68.6245C70.3556 54.8754 71.7591 56.2788 71.7591 58.0101V68.041H75.5207Z" fill="#333333"/>
<path fill-rule="evenodd" clip-rule="evenodd" d="M1.37695 44.5117H85.7203V0.626419H1.37695V44.5117ZM5.13855 40.7501V4.38802H81.9587V40.7501H5.13855Z" fill="#333333"/>
<path fill-rule="evenodd" clip-rule="evenodd" d="M75.5233 42.6309V2.50716H71.7617V42.6309H75.5233Z" fill="#333333"/>
<path fill-rule="evenodd" clip-rule="evenodd" d="M11.5742 2.50716V42.6309H15.3358V2.50716H11.5742Z" fill="#333333"/>
<path fill-rule="evenodd" clip-rule="evenodd" d="M13.4579 10.6564H3.25977V14.418H13.4579V10.6564Z" fill="#333333"/>
<path fill-rule="evenodd" clip-rule="evenodd" d="M13.4579 20.6876H3.25977V24.4492H13.4579V20.6876Z" fill="#333333"/>
<path fill-rule="evenodd" clip-rule="evenodd" d="M83.8387 10.6564H73.6406V14.418H83.8387V10.6564Z" fill="#333333"/>
<path fill-rule="evenodd" clip-rule="evenodd" d="M83.8387 20.6876H73.6406V24.4492H83.8387V20.6876Z" fill="#333333"/>
<path fill-rule="evenodd" clip-rule="evenodd" d="M73.6406 34.4805H83.8387V30.7189H73.6406V34.4805Z" fill="#333333"/>
<path fill-rule="evenodd" clip-rule="evenodd" d="M3.25977 34.4805H13.4579V30.7189H3.25977V34.4805Z" fill="#333333"/>
<path fill-rule="evenodd" clip-rule="evenodd" d="M36.6523 33.1348L57.7851 22.5684L36.6523 12.002V33.1348ZM40.4139 27.0484V18.0884L49.3739 22.5684L40.4139 27.0484Z" fill="#333333"/>
</g>
</svg>
