<svg width="195" height="135" viewBox="0 0 195 135" fill="none" xmlns="http://www.w3.org/2000/svg">
<path d="M44.4705 40.726H31.7055V32.068C35.1835 32.068 37.9585 31.772 40.0305 31.18C42.1765 30.588 43.8785 29.626 45.1365 28.294C46.3945 26.888 47.5045 24.89 48.4665 22.3H56.6805V100H44.4705V40.726ZM95.6849 33.4H71.0429V22.3H107.673V32.956L88.5809 100H76.1489L95.6849 33.4ZM133.468 101.11C127.548 101.11 123.034 99.445 119.926 96.115C116.818 92.711 115.264 87.864 115.264 81.574V80.131H126.808V82.351C126.808 87.457 128.917 90.01 133.135 90.01C135.429 90.01 137.131 89.307 138.241 87.901C139.351 86.495 139.906 84.016 139.906 80.464V65.59H139.684C137.538 70.104 133.838 72.361 128.584 72.361C124.144 72.361 120.777 70.844 118.483 67.81C116.189 64.776 115.042 60.373 115.042 54.601V40.726C115.042 34.51 116.633 29.7 119.815 26.296C122.997 22.892 127.585 21.19 133.579 21.19C139.573 21.19 144.161 22.892 147.343 26.296C150.525 29.7 152.116 34.51 152.116 40.726V80.908C152.116 94.376 145.9 101.11 133.468 101.11ZM133.579 61.261C137.797 61.261 139.906 58.708 139.906 53.602V39.838C139.906 34.806 137.797 32.29 133.579 32.29C129.361 32.29 127.252 34.806 127.252 39.838V53.602C127.252 58.708 129.361 61.261 133.579 61.261Z" fill="#DB0E35"/>
<path d="M4.2919 79H7.5519C8.68523 79 9.5119 79.2667 10.0319 79.8C10.5519 80.32 10.8119 81.1267 10.8119 82.22V83.08C10.8119 84.5333 10.3319 85.4533 9.3719 85.84V85.88C9.90523 86.04 10.2786 86.3667 10.4919 86.86C10.7186 87.3533 10.8319 88.0133 10.8319 88.84V91.3C10.8319 91.7 10.8452 92.0267 10.8719 92.28C10.8986 92.52 10.9652 92.76 11.0719 93H8.8319C8.7519 92.7733 8.69857 92.56 8.6719 92.36C8.64523 92.16 8.6319 91.8 8.6319 91.28V88.72C8.6319 88.08 8.52523 87.6333 8.3119 87.38C8.1119 87.1267 7.75857 87 7.2519 87H6.4919V93H4.2919V79ZM7.2919 85C7.7319 85 8.05857 84.8867 8.2719 84.66C8.49857 84.4333 8.6119 84.0533 8.6119 83.52V82.44C8.6119 81.9333 8.51857 81.5667 8.3319 81.34C8.15857 81.1133 7.87857 81 7.4919 81H6.4919V85H7.2919ZM14.6383 92.7C13.865 92.54 13.2716 92.1733 12.8583 91.6C12.4583 91.0267 12.2583 90.2933 12.2583 89.4V88.48H14.3383V89.54C14.3383 90.3533 14.7183 90.76 15.4783 90.76C16.2383 90.76 16.6183 90.34 16.6183 89.5C16.6183 88.98 16.485 88.5133 16.2183 88.1C15.9516 87.6733 15.4583 87.18 14.7383 86.62C13.845 85.9133 13.2183 85.2533 12.8583 84.64C12.4983 84.0267 12.3183 83.3333 12.3183 82.56C12.3183 81.6933 12.5116 80.98 12.8983 80.42C13.2983 79.86 13.8783 79.4933 14.6383 79.32V78.1H16.4383V79.32C17.2116 79.48 17.7983 79.8467 18.1983 80.42C18.5983 80.98 18.7983 81.7067 18.7983 82.6V83H16.7183V82.46C16.7183 81.6333 16.3516 81.22 15.6183 81.22C14.885 81.22 14.5183 81.62 14.5183 82.42C14.5183 82.9 14.6516 83.3467 14.9183 83.76C15.185 84.16 15.6783 84.6467 16.3983 85.22C17.2916 85.94 17.9183 86.6133 18.2783 87.24C18.6383 87.8533 18.8183 88.56 18.8183 89.36C18.8183 90.2667 18.6116 91.0133 18.1983 91.6C17.7983 92.1733 17.2116 92.54 16.4383 92.7V94.1H14.6383V92.7Z" fill="#333333"/>
<path d="M165.589 79H167.489L161.969 93H160.069L165.589 79ZM168.483 79H171.623L173.023 89.02H173.063L174.463 79H177.603V93H175.523V82.4H175.483L173.883 93H172.043L170.443 82.4H170.403V93H168.483V79ZM179.245 79H185.245V81H181.445V84.7H184.465V86.7H181.445V91H185.245V93H179.245V79ZM181.205 75.76H183.285L184.925 78.06H183.265L182.245 76.96L181.225 78.06H179.565L181.205 75.76ZM189.409 93.2C188.343 93.2 187.536 92.9 186.989 92.3C186.443 91.6867 186.169 90.8133 186.169 89.68V88.88H188.249V89.84C188.249 90.7467 188.629 91.2 189.389 91.2C189.763 91.2 190.043 91.0933 190.229 90.88C190.429 90.6533 190.529 90.2933 190.529 89.8C190.529 89.2133 190.396 88.7 190.129 88.26C189.863 87.8067 189.369 87.2667 188.649 86.64C187.743 85.84 187.109 85.12 186.749 84.48C186.389 83.8267 186.209 83.0933 186.209 82.28C186.209 81.1733 186.489 80.32 187.049 79.72C187.609 79.1067 188.423 78.8 189.489 78.8C190.543 78.8 191.336 79.1067 191.869 79.72C192.416 80.32 192.689 81.1867 192.689 82.32V82.9H190.609V82.18C190.609 81.7 190.516 81.3533 190.329 81.14C190.143 80.9133 189.869 80.8 189.509 80.8C188.776 80.8 188.409 81.2467 188.409 82.14C188.409 82.6467 188.543 83.12 188.809 83.56C189.089 84 189.589 84.5333 190.309 85.16C191.229 85.96 191.863 86.6867 192.209 87.34C192.556 87.9933 192.729 88.76 192.729 89.64C192.729 90.7867 192.443 91.6667 191.869 92.28C191.309 92.8933 190.489 93.2 189.409 93.2Z" fill="#333333"/>
<path d="M168.165 33H167.445V30.88H169.565V32.78L168.465 35.4H167.445L168.165 33ZM174.315 33.2C173.248 33.2 172.435 32.9 171.875 32.3C171.315 31.6867 171.035 30.8133 171.035 29.68V29.42H173.115V29.82C173.115 30.74 173.495 31.2 174.255 31.2C174.668 31.2 174.975 31.0733 175.175 30.82C175.375 30.5667 175.475 30.12 175.475 29.48V26.8H175.435C175.048 27.6133 174.382 28.02 173.435 28.02C172.635 28.02 172.028 27.7467 171.615 27.2C171.202 26.6533 170.995 25.86 170.995 24.82V22.32C170.995 21.2 171.282 20.3333 171.855 19.72C172.428 19.1067 173.255 18.8 174.335 18.8C175.415 18.8 176.242 19.1067 176.815 19.72C177.388 20.3333 177.675 21.2 177.675 22.32V29.56C177.675 31.9867 176.555 33.2 174.315 33.2ZM174.335 26.02C175.095 26.02 175.475 25.56 175.475 24.64V22.16C175.475 21.2533 175.095 20.8 174.335 20.8C173.575 20.8 173.195 21.2533 173.195 22.16V24.64C173.195 25.56 173.575 26.02 174.335 26.02ZM182.403 33.2C181.323 33.2 180.496 32.8933 179.923 32.28C179.349 31.6667 179.063 30.8 179.063 29.68V22.32C179.063 21.2 179.349 20.3333 179.923 19.72C180.496 19.1067 181.323 18.8 182.403 18.8C183.483 18.8 184.309 19.1067 184.883 19.72C185.456 20.3333 185.743 21.2 185.743 22.32V29.68C185.743 30.8 185.456 31.6667 184.883 32.28C184.309 32.8933 183.483 33.2 182.403 33.2ZM182.403 31.2C183.163 31.2 183.543 30.74 183.543 29.82V22.18C183.543 21.26 183.163 20.8 182.403 20.8C181.643 20.8 181.263 21.26 181.263 22.18V29.82C181.263 30.74 181.643 31.2 182.403 31.2Z" fill="#DB0E35"/>
</svg>
