<svg width="151" height="124" viewBox="0 0 151 124" fill="none" xmlns="http://www.w3.org/2000/svg">
<path d="M50.424 91.4434C44.8907 91.4434 40.624 89.9767 37.624 87.0434C34.6907 84.0434 33.224 79.7434 33.224 74.1434V67.9434C33.224 64.4767 33.7907 61.5767 34.924 59.2434C36.0574 56.8434 37.8907 54.9767 40.424 53.6434V53.4434C38.0907 52.1767 36.3574 50.4434 35.224 48.2434C34.1574 45.9767 33.624 43.11 33.624 39.6434V36.7434C33.624 31.1434 35.0574 26.8767 37.924 23.9434C40.8574 20.9434 45.024 19.4434 50.424 19.4434C55.824 19.4434 59.9574 20.9434 62.824 23.9434C65.7574 26.8767 67.224 31.1434 67.224 36.7434V39.6434C67.224 46.31 64.9574 50.91 60.424 53.4434V53.6434C62.9574 54.9767 64.7907 56.8434 65.924 59.2434C67.0574 61.5767 67.624 64.4767 67.624 67.9434V74.1434C67.624 79.7434 66.124 84.0434 63.124 87.0434C60.1907 89.9767 55.9574 91.4434 50.424 91.4434ZM50.424 48.9434C54.2907 48.9434 56.224 46.61 56.224 41.9434V36.4434C56.224 31.7767 54.2907 29.4434 50.424 29.4434C46.5574 29.4434 44.624 31.7767 44.624 36.4434V41.9434C44.624 46.61 46.5574 48.9434 50.424 48.9434ZM50.424 81.4434C54.5574 81.4434 56.624 78.81 56.624 73.5434V66.8434C56.624 61.5767 54.5574 58.9434 50.424 58.9434C46.2907 58.9434 44.224 61.5767 44.224 66.8434V73.5434C44.224 78.81 46.2907 81.4434 50.424 81.4434ZM90.6631 91.4434C85.3298 91.4434 81.2631 89.9434 78.4631 86.9434C75.6631 83.8767 74.2631 79.51 74.2631 73.8434V68.3434H84.6631V74.6434C84.6631 79.1767 86.5631 81.4434 90.3631 81.4434C94.1631 81.4434 96.0631 79.1767 96.0631 74.6434V58.9434C96.0631 54.3434 94.1631 52.0434 90.3631 52.0434C86.5631 52.0434 84.6631 54.3434 84.6631 58.9434V59.5434H74.2631L76.2631 20.4434H105.263V30.4434H86.0631L85.1631 47.1434H85.3631C87.4298 43.7434 90.5964 42.0434 94.8631 42.0434C98.8631 42.0434 101.896 43.41 103.963 46.1434C106.03 48.8767 107.063 52.8434 107.063 58.0434V73.8434C107.063 79.51 105.663 83.8767 102.863 86.9434C100.063 89.9434 95.9964 91.4434 90.6631 91.4434Z" fill="#DB0E35"/>
<path d="M4.83858 76.9406H7.44658C8.35325 76.9406 9.01458 77.154 9.43058 77.5806C9.84658 77.9966 10.0546 78.642 10.0546 79.5166V80.2046C10.0546 81.3673 9.67058 82.1033 8.90258 82.4126V82.4446C9.32925 82.5726 9.62792 82.834 9.79858 83.2286C9.97992 83.6233 10.0706 84.1513 10.0706 84.8126V86.7806C10.0706 87.1006 10.0813 87.362 10.1026 87.5646C10.1239 87.7566 10.1773 87.9486 10.2626 88.1406H8.47058C8.40658 87.9593 8.36392 87.7886 8.34258 87.6286C8.32125 87.4686 8.31058 87.1806 8.31058 86.7646V84.7166C8.31058 84.2046 8.22525 83.8473 8.05458 83.6446C7.89458 83.442 7.61192 83.3406 7.20658 83.3406H6.59858V88.1406H4.83858V76.9406ZM7.23858 81.7406C7.59058 81.7406 7.85192 81.65 8.02258 81.4686C8.20392 81.2873 8.29458 80.9833 8.29458 80.5566V79.6926C8.29458 79.2873 8.21992 78.994 8.07058 78.8126C7.93192 78.6313 7.70792 78.5406 7.39858 78.5406H6.59858V81.7406H7.23858ZM13.1157 87.9006C12.497 87.7726 12.0224 87.4793 11.6917 87.0206C11.3717 86.562 11.2117 85.9753 11.2117 85.2606V84.5246H12.8757V85.3726C12.8757 86.0233 13.1797 86.3486 13.7877 86.3486C14.3957 86.3486 14.6997 86.0126 14.6997 85.3406C14.6997 84.9246 14.593 84.5513 14.3797 84.2206C14.1664 83.8793 13.7717 83.4846 13.1957 83.0366C12.481 82.4713 11.9797 81.9433 11.6917 81.4526C11.4037 80.962 11.2597 80.4073 11.2597 79.7886C11.2597 79.0953 11.4144 78.5246 11.7237 78.0766C12.0437 77.6286 12.5077 77.3353 13.1157 77.1966V76.2206H14.5557V77.1966C15.1744 77.3246 15.6437 77.618 15.9637 78.0766C16.2837 78.5246 16.4437 79.106 16.4437 79.8206V80.1406H14.7797V79.7086C14.7797 79.0473 14.4864 78.7166 13.8997 78.7166C13.313 78.7166 13.0197 79.0366 13.0197 79.6766C13.0197 80.0606 13.1264 80.418 13.3397 80.7486C13.553 81.0686 13.9477 81.458 14.5237 81.9166C15.2384 82.4926 15.7397 83.0313 16.0277 83.5326C16.3157 84.0233 16.4597 84.5886 16.4597 85.2286C16.4597 85.954 16.2944 86.5513 15.9637 87.0206C15.6437 87.4793 15.1744 87.7726 14.5557 87.9006V89.0206H13.1157V87.9006Z" fill="#333333"/>
<path d="M125.677 76.9406H127.197L122.781 88.1406H121.261L125.677 76.9406ZM127.991 76.9406H130.503L131.623 84.9566H131.655L132.775 76.9406H135.287V88.1406H133.623V79.6606H133.591L132.311 88.1406H130.839L129.559 79.6606H129.527V88.1406H127.991V76.9406ZM136.601 76.9406H141.401V78.5406H138.361V81.5006H140.777V83.1006H138.361V86.5406H141.401V88.1406H136.601V76.9406ZM138.169 74.3486H139.833L141.145 76.1886H139.817L139.001 75.3086L138.185 76.1886H136.857L138.169 74.3486ZM144.732 88.3006C143.879 88.3006 143.234 88.0606 142.796 87.5806C142.359 87.09 142.14 86.3913 142.14 85.4846V84.8446H143.804V85.6126C143.804 86.338 144.108 86.7006 144.716 86.7006C145.015 86.7006 145.239 86.6153 145.388 86.4446C145.548 86.2633 145.628 85.9753 145.628 85.5806C145.628 85.1113 145.522 84.7006 145.308 84.3486C145.095 83.986 144.7 83.554 144.124 83.0526C143.399 82.4126 142.892 81.8366 142.604 81.3246C142.316 80.802 142.172 80.2153 142.172 79.5646C142.172 78.6793 142.396 77.9966 142.844 77.5166C143.292 77.026 143.943 76.7806 144.796 76.7806C145.639 76.7806 146.274 77.026 146.7 77.5166C147.138 77.9966 147.356 78.69 147.356 79.5966V80.0606H145.692V79.4846C145.692 79.1006 145.618 78.8233 145.468 78.6526C145.319 78.4713 145.1 78.3806 144.812 78.3806C144.226 78.3806 143.932 78.738 143.932 79.4526C143.932 79.858 144.039 80.2366 144.252 80.5886C144.476 80.9406 144.876 81.3673 145.452 81.8686C146.188 82.5086 146.695 83.09 146.972 83.6126C147.25 84.1353 147.388 84.7486 147.388 85.4526C147.388 86.37 147.159 87.074 146.7 87.5646C146.252 88.0553 145.596 88.3006 144.732 88.3006Z" fill="#333333"/>
<path d="M121.332 31.2832H120.756V29.5872H122.452V31.1072L121.572 33.2032H120.756L121.332 31.2832ZM126.251 31.4432C125.398 31.4432 124.747 31.2032 124.299 30.7232C123.851 30.2325 123.627 29.5339 123.627 28.6272V28.4192H125.291V28.7392C125.291 29.4752 125.595 29.8432 126.203 29.8432C126.534 29.8432 126.779 29.7419 126.939 29.5392C127.099 29.3365 127.179 28.9792 127.179 28.4672V26.3232H127.147C126.838 26.9739 126.305 27.2992 125.547 27.2992C124.907 27.2992 124.422 27.0805 124.091 26.6432C123.761 26.2059 123.595 25.5712 123.595 24.7392V22.7392C123.595 21.8432 123.825 21.1499 124.283 20.6592C124.742 20.1685 125.403 19.9232 126.267 19.9232C127.131 19.9232 127.793 20.1685 128.251 20.6592C128.71 21.1499 128.939 21.8432 128.939 22.7392V28.5312C128.939 30.4725 128.043 31.4432 126.251 31.4432ZM126.267 25.6992C126.875 25.6992 127.179 25.3312 127.179 24.5952V22.6112C127.179 21.8859 126.875 21.5232 126.267 21.5232C125.659 21.5232 125.355 21.8859 125.355 22.6112V24.5952C125.355 25.3312 125.659 25.6992 126.267 25.6992ZM132.722 31.4432C131.858 31.4432 131.196 31.1979 130.738 30.7072C130.279 30.2165 130.05 29.5232 130.05 28.6272V22.7392C130.05 21.8432 130.279 21.1499 130.738 20.6592C131.196 20.1685 131.858 19.9232 132.722 19.9232C133.586 19.9232 134.247 20.1685 134.706 20.6592C135.164 21.1499 135.394 21.8432 135.394 22.7392V28.6272C135.394 29.5232 135.164 30.2165 134.706 30.7072C134.247 31.1979 133.586 31.4432 132.722 31.4432ZM132.722 29.8432C133.33 29.8432 133.634 29.4752 133.634 28.7392V22.6272C133.634 21.8912 133.33 21.5232 132.722 21.5232C132.114 21.5232 131.81 21.8912 131.81 22.6272V28.7392C131.81 29.4752 132.114 29.8432 132.722 29.8432Z" fill="#DB0E35"/>
</svg>
