<svg width="208" height="135" viewBox="0 0 208 135" fill="none" xmlns="http://www.w3.org/2000/svg">
<path d="M50.3573 40.7221H37.5923V32.0641C41.0703 32.0641 43.8453 31.7681 45.9172 31.1761C48.0633 30.5841 49.7653 29.6221 51.0233 28.2901C52.2813 26.8841 53.3913 24.8861 54.3533 22.2961H62.5673V99.9961H50.3573V40.7221ZM77.4846 91.5601C77.4846 86.0101 78.3726 81.2741 80.1486 77.3521C81.9246 73.3561 85.1066 68.9531 89.6946 64.1431C94.2086 59.3331 97.3166 55.2261 99.0186 51.8221C100.795 48.4181 101.683 44.8661 101.683 41.1661C101.683 37.8361 101.128 35.5421 100.018 34.2841C98.9816 32.9521 97.4276 32.2861 95.3556 32.2861C91.1376 32.2861 89.0286 34.8391 89.0286 39.9451V48.2701H77.4846V40.7221C77.4846 34.4321 79.0386 29.6221 82.1466 26.2921C85.2546 22.8881 89.7686 21.1861 95.6886 21.1861C101.609 21.1861 106.123 22.8881 109.231 26.2921C112.339 29.6221 113.893 34.4321 113.893 40.7221C113.893 45.4581 112.746 50.0831 110.452 54.5971C108.232 59.1111 104.347 64.2911 98.7966 70.1371C95.1706 73.9851 92.7286 77.1301 91.4706 79.5721C90.2126 81.9401 89.5836 84.4931 89.5836 87.2311V88.8961H112.783V99.9961H77.4846V91.5601ZM139.355 101.106C133.435 101.106 128.921 99.4411 125.813 96.1111C122.705 92.7071 121.151 87.8601 121.151 81.5701V80.1271H132.695V82.3471C132.695 87.4531 134.804 90.0061 139.022 90.0061C141.316 90.0061 143.018 89.3031 144.128 87.8971C145.238 86.4911 145.793 84.0121 145.793 80.4601V65.5861H145.571C143.425 70.1001 139.725 72.3571 134.471 72.3571C130.031 72.3571 126.664 70.8401 124.37 67.8061C122.076 64.7721 120.929 60.3691 120.929 54.5971V40.7221C120.929 34.5061 122.52 29.6961 125.702 26.2921C128.884 22.8881 133.472 21.1861 139.466 21.1861C145.46 21.1861 150.048 22.8881 153.23 26.2921C156.412 29.6961 158.003 34.5061 158.003 40.7221V80.9041C158.003 94.3721 151.787 101.106 139.355 101.106ZM139.466 61.2571C143.684 61.2571 145.793 58.7041 145.793 53.5981V39.8341C145.793 34.8021 143.684 32.2861 139.466 32.2861C135.248 32.2861 133.139 34.8021 133.139 39.8341V53.5981C133.139 58.7041 135.248 61.2571 139.466 61.2571Z" fill="#DB0E35"/>
<path d="M4.90323 83.7266H8.16323C9.29656 83.7266 10.1232 83.9932 10.6432 84.5266C11.1632 85.0466 11.4232 85.8532 11.4232 86.9466V87.8066C11.4232 89.2599 10.9432 90.1799 9.98323 90.5666V90.6066C10.5166 90.7666 10.8899 91.0932 11.1032 91.5866C11.3299 92.0799 11.4432 92.7399 11.4432 93.5666V96.0266C11.4432 96.4266 11.4566 96.7532 11.4832 97.0066C11.5099 97.2466 11.5766 97.4866 11.6832 97.7266H9.44323C9.36323 97.4999 9.3099 97.2866 9.28323 97.0866C9.25656 96.8866 9.24323 96.5266 9.24323 96.0066V93.4466C9.24323 92.8066 9.13656 92.3599 8.92323 92.1066C8.72323 91.8532 8.3699 91.7266 7.86323 91.7266H7.10323V97.7266H4.90323V83.7266ZM7.90323 89.7266C8.34323 89.7266 8.66989 89.6132 8.88323 89.3866C9.10989 89.1599 9.22323 88.7799 9.22323 88.2466V87.1666C9.22323 86.6599 9.12989 86.2932 8.94323 86.0666C8.76989 85.8399 8.48989 85.7266 8.10323 85.7266H7.10323V89.7266H7.90323ZM15.2496 97.4266C14.4763 97.2666 13.883 96.8999 13.4696 96.3266C13.0696 95.7532 12.8696 95.0199 12.8696 94.1266V93.2066H14.9496V94.2666C14.9496 95.0799 15.3296 95.4866 16.0896 95.4866C16.8496 95.4866 17.2296 95.0666 17.2296 94.2266C17.2296 93.7066 17.0963 93.2399 16.8296 92.8266C16.563 92.3999 16.0696 91.9066 15.3496 91.3466C14.4563 90.6399 13.8296 89.9799 13.4696 89.3666C13.1096 88.7532 12.9296 88.0599 12.9296 87.2866C12.9296 86.4199 13.123 85.7066 13.5096 85.1466C13.9096 84.5866 14.4896 84.2199 15.2496 84.0466V82.8266H17.0496V84.0466C17.823 84.2066 18.4096 84.5732 18.8096 85.1466C19.2096 85.7066 19.4096 86.4332 19.4096 87.3266V87.7266H17.3296V87.1866C17.3296 86.3599 16.963 85.9466 16.2296 85.9466C15.4963 85.9466 15.1296 86.3466 15.1296 87.1466C15.1296 87.6266 15.263 88.0732 15.5296 88.4866C15.7963 88.8866 16.2896 89.3732 17.0096 89.9466C17.903 90.6666 18.5296 91.3399 18.8896 91.9666C19.2496 92.5799 19.4296 93.2866 19.4296 94.0866C19.4296 94.9932 19.223 95.7399 18.8096 96.3266C18.4096 96.8999 17.823 97.2666 17.0496 97.4266V98.8266H15.2496V97.4266Z" fill="#333333"/>
<path d="M179.097 83.7578H180.997L175.477 97.7578H173.577L179.097 83.7578ZM181.991 83.7578H185.131L186.531 93.7778H186.571L187.971 83.7578H191.111V97.7578H189.031V87.1578H188.991L187.391 97.7578H185.551L183.951 87.1578H183.911V97.7578H181.991V83.7578ZM192.752 83.7578H198.752V85.7578H194.952V89.4578H197.972V91.4578H194.952V95.7578H198.752V97.7578H192.752V83.7578ZM194.712 80.5178H196.792L198.432 82.8178H196.772L195.752 81.7178L194.732 82.8178H193.072L194.712 80.5178ZM202.917 97.9578C201.85 97.9578 201.044 97.6578 200.497 97.0578C199.95 96.4445 199.677 95.5711 199.677 94.4378V93.6378H201.757V94.5978C201.757 95.5045 202.137 95.9578 202.897 95.9578C203.27 95.9578 203.55 95.8511 203.737 95.6378C203.937 95.4111 204.037 95.0511 204.037 94.5578C204.037 93.9711 203.904 93.4578 203.637 93.0178C203.37 92.5645 202.877 92.0245 202.157 91.3978C201.25 90.5978 200.617 89.8778 200.257 89.2378C199.897 88.5845 199.717 87.8511 199.717 87.0378C199.717 85.9311 199.997 85.0778 200.557 84.4778C201.117 83.8645 201.93 83.5578 202.997 83.5578C204.05 83.5578 204.844 83.8645 205.377 84.4778C205.924 85.0778 206.197 85.9445 206.197 87.0778V87.6578H204.117V86.9378C204.117 86.4578 204.024 86.1111 203.837 85.8978C203.65 85.6711 203.377 85.5578 203.017 85.5578C202.284 85.5578 201.917 86.0045 201.917 86.8978C201.917 87.4045 202.05 87.8778 202.317 88.3178C202.597 88.7578 203.097 89.2911 203.817 89.9178C204.737 90.7178 205.37 91.4445 205.717 92.0978C206.064 92.7511 206.237 93.5178 206.237 94.3978C206.237 95.5445 205.95 96.4245 205.377 97.0378C204.817 97.6511 203.997 97.9578 202.917 97.9578Z" fill="#333333"/>
<path d="M174.673 36.4023H173.953V34.2823H176.073V36.1823L174.973 38.8023H173.953L174.673 36.4023ZM180.823 36.6023C179.756 36.6023 178.943 36.3023 178.383 35.7023C177.823 35.089 177.543 34.2157 177.543 33.0823V32.8223H179.623V33.2223C179.623 34.1423 180.003 34.6023 180.763 34.6023C181.176 34.6023 181.483 34.4757 181.683 34.2223C181.883 33.969 181.983 33.5223 181.983 32.8823V30.2023H181.943C181.556 31.0157 180.889 31.4223 179.943 31.4223C179.143 31.4223 178.536 31.149 178.123 30.6023C177.709 30.0557 177.503 29.2623 177.503 28.2223V25.7223C177.503 24.6023 177.789 23.7357 178.363 23.1223C178.936 22.509 179.763 22.2023 180.843 22.2023C181.923 22.2023 182.749 22.509 183.323 23.1223C183.896 23.7357 184.183 24.6023 184.183 25.7223V32.9623C184.183 35.389 183.063 36.6023 180.823 36.6023ZM180.843 29.4223C181.603 29.4223 181.983 28.9623 181.983 28.0423V25.5623C181.983 24.6557 181.603 24.2023 180.843 24.2023C180.083 24.2023 179.703 24.6557 179.703 25.5623V28.0423C179.703 28.9623 180.083 29.4223 180.843 29.4223ZM188.911 36.6023C187.831 36.6023 187.004 36.2957 186.431 35.6823C185.857 35.069 185.571 34.2023 185.571 33.0823V25.7223C185.571 24.6023 185.857 23.7357 186.431 23.1223C187.004 22.509 187.831 22.2023 188.911 22.2023C189.991 22.2023 190.817 22.509 191.391 23.1223C191.964 23.7357 192.251 24.6023 192.251 25.7223V33.0823C192.251 34.2023 191.964 35.069 191.391 35.6823C190.817 36.2957 189.991 36.6023 188.911 36.6023ZM188.911 34.6023C189.671 34.6023 190.051 34.1423 190.051 33.2223V25.5823C190.051 24.6623 189.671 24.2023 188.911 24.2023C188.151 24.2023 187.771 24.6623 187.771 25.5823V33.2223C187.771 34.1423 188.151 34.6023 188.911 34.6023Z" fill="#DB0E35"/>
</svg>
