<svg width="151" height="125" viewBox="0 0 151 125" fill="none" xmlns="http://www.w3.org/2000/svg">
<path d="M50.067 91.6406C44.7337 91.6406 40.667 90.1406 37.867 87.1406C35.067 84.074 33.667 79.7073 33.667 74.0406V72.7406H44.067V74.7406C44.067 79.3406 45.967 81.6406 49.767 81.6406C51.8337 81.6406 53.367 81.0073 54.367 79.7406C55.367 78.474 55.867 76.2406 55.867 73.0406V59.6406H55.667C53.7337 63.7073 50.4003 65.7406 45.667 65.7406C41.667 65.7406 38.6337 64.374 36.567 61.6406C34.5003 58.9073 33.467 54.9406 33.467 49.7406V37.2406C33.467 31.6406 34.9003 27.3073 37.767 24.2406C40.6337 21.174 44.767 19.6406 50.167 19.6406C55.567 19.6406 59.7003 21.174 62.567 24.2406C65.4337 27.3073 66.867 31.6406 66.867 37.2406V73.4406C66.867 85.574 61.267 91.6406 50.067 91.6406ZM50.167 55.7406C53.967 55.7406 55.867 53.4406 55.867 48.8406V36.4406C55.867 31.9073 53.967 29.6406 50.167 29.6406C46.367 29.6406 44.467 31.9073 44.467 36.4406V48.8406C44.467 53.4406 46.367 55.7406 50.167 55.7406ZM90.7061 91.6406C85.3727 91.6406 81.3061 90.1406 78.5061 87.1406C75.7061 84.074 74.3061 79.7073 74.3061 74.0406V68.5406H84.7061V74.8406C84.7061 79.374 86.6061 81.6406 90.4061 81.6406C94.2061 81.6406 96.1061 79.374 96.1061 74.8406V59.1406C96.1061 54.5406 94.2061 52.2406 90.4061 52.2406C86.6061 52.2406 84.7061 54.5406 84.7061 59.1406V59.7406H74.3061L76.3061 20.6406H105.306V30.6406H86.1061L85.2061 47.3406H85.4061C87.4727 43.9406 90.6394 42.2406 94.9061 42.2406C98.9061 42.2406 101.939 43.6073 104.006 46.3406C106.073 49.074 107.106 53.0406 107.106 58.2406V74.0406C107.106 79.7073 105.706 84.074 102.906 87.1406C100.106 90.1406 96.0394 91.6406 90.7061 91.6406Z" fill="#DB0E35"/>
<path d="M4.88155 77.9934H7.48955C8.39622 77.9934 9.05755 78.2067 9.47355 78.6334C9.88955 79.0494 10.0976 79.6947 10.0976 80.5694V81.2574C10.0976 82.42 9.71355 83.156 8.94555 83.4654V83.4974C9.37222 83.6254 9.67089 83.8867 9.84155 84.2814C10.0229 84.676 10.1136 85.204 10.1136 85.8654V87.8334C10.1136 88.1534 10.1242 88.4147 10.1456 88.6174C10.1669 88.8094 10.2202 89.0014 10.3056 89.1934H8.51355C8.44955 89.012 8.40689 88.8414 8.38555 88.6814C8.36422 88.5214 8.35355 88.2334 8.35355 87.8174V85.7694C8.35355 85.2574 8.26822 84.9 8.09755 84.6974C7.93755 84.4947 7.65489 84.3934 7.24955 84.3934H6.64155V89.1934H4.88155V77.9934ZM7.28155 82.7934C7.63355 82.7934 7.89489 82.7027 8.06555 82.5214C8.24689 82.34 8.33755 82.036 8.33755 81.6094V80.7454C8.33755 80.34 8.26289 80.0467 8.11355 79.8654C7.97489 79.684 7.75089 79.5934 7.44155 79.5934H6.64155V82.7934H7.28155ZM13.1587 88.9534C12.54 88.8254 12.0653 88.532 11.7347 88.0734C11.4147 87.6147 11.2547 87.028 11.2547 86.3134V85.5774H12.9187V86.4254C12.9187 87.076 13.2227 87.4014 13.8307 87.4014C14.4387 87.4014 14.7427 87.0654 14.7427 86.3934C14.7427 85.9774 14.636 85.604 14.4227 85.2734C14.2093 84.932 13.8147 84.5374 13.2387 84.0894C12.524 83.524 12.0227 82.996 11.7347 82.5054C11.4467 82.0147 11.3027 81.46 11.3027 80.8414C11.3027 80.148 11.4573 79.5774 11.7667 79.1294C12.0867 78.6814 12.5507 78.388 13.1587 78.2494V77.2734H14.5987V78.2494C15.2173 78.3774 15.6867 78.6707 16.0067 79.1294C16.3267 79.5774 16.4867 80.1587 16.4867 80.8734V81.1934H14.8227V80.7614C14.8227 80.1 14.5293 79.7694 13.9427 79.7694C13.356 79.7694 13.0627 80.0894 13.0627 80.7294C13.0627 81.1134 13.1693 81.4707 13.3827 81.8014C13.596 82.1214 13.9907 82.5107 14.5667 82.9694C15.2813 83.5454 15.7827 84.084 16.0707 84.5854C16.3587 85.076 16.5027 85.6414 16.5027 86.2814C16.5027 87.0067 16.3373 87.604 16.0067 88.0734C15.6867 88.532 15.2173 88.8254 14.5987 88.9534V90.0734H13.1587V88.9534Z" fill="#333333"/>
<path d="M125.72 78.0187H127.24L122.824 89.2188H121.304L125.72 78.0187ZM128.034 78.0187H130.546L131.666 86.0347H131.698L132.818 78.0187H135.33V89.2188H133.666V80.7387H133.634L132.354 89.2188H130.882L129.602 80.7387H129.57V89.2188H128.034V78.0187ZM136.644 78.0187H141.444V79.6187H138.404V82.5787H140.82V84.1787H138.404V87.6187H141.444V89.2188H136.644V78.0187ZM138.212 75.4267H139.876L141.188 77.2667H139.86L139.044 76.3867L138.228 77.2667H136.9L138.212 75.4267ZM144.775 89.3788C143.922 89.3788 143.277 89.1388 142.839 88.6587C142.402 88.1681 142.183 87.4694 142.183 86.5627V85.9227H143.847V86.6907C143.847 87.4161 144.151 87.7787 144.759 87.7787C145.058 87.7787 145.282 87.6934 145.431 87.5227C145.591 87.3414 145.671 87.0534 145.671 86.6587C145.671 86.1894 145.565 85.7787 145.351 85.4267C145.138 85.0641 144.743 84.6321 144.167 84.1307C143.442 83.4907 142.935 82.9147 142.647 82.4027C142.359 81.8801 142.215 81.2934 142.215 80.6427C142.215 79.7574 142.439 79.0747 142.887 78.5947C143.335 78.1041 143.986 77.8587 144.839 77.8587C145.682 77.8587 146.317 78.1041 146.743 78.5947C147.181 79.0747 147.399 79.7681 147.399 80.6747V81.1388H145.735V80.5627C145.735 80.1787 145.661 79.9014 145.511 79.7307C145.362 79.5494 145.143 79.4587 144.855 79.4587C144.269 79.4587 143.975 79.8161 143.975 80.5307C143.975 80.9361 144.082 81.3147 144.295 81.6667C144.519 82.0187 144.919 82.4454 145.495 82.9467C146.231 83.5867 146.738 84.1681 147.015 84.6907C147.293 85.2134 147.431 85.8267 147.431 86.5307C147.431 87.4481 147.202 88.1521 146.743 88.6427C146.295 89.1334 145.639 89.3788 144.775 89.3788Z" fill="#333333"/>
<path d="M121.375 32.2832H120.799V30.5872H122.495V32.1072L121.615 34.2032H120.799L121.375 32.2832ZM126.294 32.4432C125.441 32.4432 124.79 32.2032 124.342 31.7232C123.894 31.2325 123.67 30.5339 123.67 29.6272V29.4192H125.334V29.7392C125.334 30.4752 125.638 30.8432 126.246 30.8432C126.577 30.8432 126.822 30.7419 126.982 30.5392C127.142 30.3365 127.222 29.9792 127.222 29.4672V27.3232H127.19C126.881 27.9739 126.348 28.2992 125.59 28.2992C124.95 28.2992 124.465 28.0805 124.134 27.6432C123.804 27.2059 123.638 26.5712 123.638 25.7392V23.7392C123.638 22.8432 123.868 22.1499 124.326 21.6592C124.785 21.1685 125.446 20.9232 126.31 20.9232C127.174 20.9232 127.836 21.1685 128.294 21.6592C128.753 22.1499 128.982 22.8432 128.982 23.7392V29.5312C128.982 31.4725 128.086 32.4432 126.294 32.4432ZM126.31 26.6992C126.918 26.6992 127.222 26.3312 127.222 25.5952V23.6112C127.222 22.8859 126.918 22.5232 126.31 22.5232C125.702 22.5232 125.398 22.8859 125.398 23.6112V25.5952C125.398 26.3312 125.702 26.6992 126.31 26.6992ZM132.764 32.4432C131.9 32.4432 131.239 32.1979 130.78 31.7072C130.322 31.2165 130.092 30.5232 130.092 29.6272V23.7392C130.092 22.8432 130.322 22.1499 130.78 21.6592C131.239 21.1685 131.9 20.9232 132.764 20.9232C133.628 20.9232 134.29 21.1685 134.748 21.6592C135.207 22.1499 135.436 22.8432 135.436 23.7392V29.6272C135.436 30.5232 135.207 31.2165 134.748 31.7072C134.29 32.1979 133.628 32.4432 132.764 32.4432ZM132.764 30.8432C133.372 30.8432 133.676 30.4752 133.676 29.7392V23.6272C133.676 22.8912 133.372 22.5232 132.764 22.5232C132.156 22.5232 131.852 22.8912 131.852 23.6272V29.7392C131.852 30.4752 132.156 30.8432 132.764 30.8432Z" fill="#DB0E35"/>
</svg>
