<svg width="871" height="953" viewBox="0 0 871 953" fill="none" xmlns="http://www.w3.org/2000/svg">
<rect x="79.0488" y="196.865" width="698.092" height="741.103" transform="rotate(-4.09011 79.0488 196.865)" fill="url(#paint0_radial_5405_792)"/>
<g opacity="0.3">
<path d="M630.913 229.799C647.834 247.513 659.044 259.261 677.006 286.425C692.704 312.574 693.958 314.769 702.55 333.534C714.61 363.21 715.325 365.005 720.703 383.948C728.468 416.384 728.785 417.678 731.229 436.934C734.138 470.846 734.266 472.162 733.79 491.667C731.536 526.373 731.477 527.712 727.939 547.228C720.442 581.153 719.949 583.2 712.691 603.99C699.928 635.573 699.705 636.128 690.713 652.648C674.081 680.26 673.447 681.394 662.051 695.985C641.818 719.826 641.043 720.723 627.36 733.414C605.241 752.137 603.434 753.666 587.054 764.358C564.795 777.433 561.369 779.454 541.201 788.09C525.068 794.038 511.166 799.167 488.406 803.53C467.923 806.814 448.366 809.372 416.014 806.907C405.679 805.854 405.679 805.854 400.612 805.115C391.45 803.667 391.451 803.667 386.958 802.794C378.407 801.019 378.407 801.019 374.137 799.929C365.727 797.714 365.727 797.714 361.481 796.495C352.965 793.848 352.789 793.806 348.426 792.22C339.359 788.9 339.019 788.751 334.292 786.808C324.018 782.388 323.619 782.225 318.165 779.566C306.178 773.451 305.451 773.074 298.649 769.078C284.34 760.242 282.851 759.344 273.609 752.6C257.191 739.876 253.813 737.242 239.612 723.763C222.07 705.426 218.423 701.577 203.614 682C187.118 657.554 185.383 654.974 175.571 636.187C162.126 607.398 161.329 605.719 154.907 586.796C145.558 554.996 145.171 553.753 141.729 534.596C137.296 500.996 137.109 499.665 136.588 480.261C136.975 449.437 137.13 441.153 142.457 406.033C150.201 371.422 150.33 370.709 156.636 352.464C169.13 320.682 169.353 320.127 178.18 303.5C194.555 275.623 195.236 274.569 206.421 259.792C226.454 235.699 227.241 234.737 240.748 222.004C262.738 202.981 264.545 201.451 280.703 190.638C302.891 177.276 306.329 175.19 326.204 166.484C340.999 160.824 356.309 155.018 378.424 150.501C403.952 146.056 422.651 144.172 454.371 146.419C464.705 147.471 464.705 147.471 469.773 148.21C478.934 149.659 478.934 149.659 483.427 150.531C491.978 152.307 491.978 152.307 496.247 153.396C504.658 155.612 504.658 155.612 508.904 156.831C517.419 159.478 517.595 159.52 521.959 161.105C531.19 164.532 531.366 164.574 536.092 166.517C546.367 170.938 546.766 171.101 552.22 173.759C564.206 179.875 564.933 180.252 571.736 184.247C586.044 193.083 587.534 193.981 596.775 200.725C613.499 213.792 616.501 216.134 630.596 229.52C594.056 193.783 546.719 170.684 492.219 165.827C492.219 165.827 492.219 165.827 492.161 165.813C492.161 165.813 492.161 165.813 492.102 165.799C492.102 165.799 492.102 165.799 492.161 165.813L492.102 165.799C492.102 165.799 492.102 165.799 492.043 165.785L492.102 165.799L492.161 165.813L492.219 165.827C518.131 169.389 578.742 177.67 630.913 229.799ZM630.76 229.627C594.173 193.811 546.789 170.633 492.161 165.813C546.719 170.684 594.173 193.811 630.76 229.627C613.991 214.113 611.786 212.097 596.763 200.79C581.822 190.382 581.224 189.968 571.724 184.312C559.057 177.222 559.057 177.222 552.208 173.824C541.546 168.837 541.546 168.837 536.081 166.582C526.662 162.839 526.662 162.839 521.947 161.17C513.185 158.194 513.185 158.194 508.833 156.882C500.4 154.457 500.4 154.457 496.177 153.447C487.849 151.454 487.673 151.412 483.356 150.582C474.477 148.93 474.301 148.888 469.702 148.261C459.955 147.011 459.603 146.927 454.3 146.47C425.83 144.527 406.674 145.558 378.353 150.551C362.445 154.253 347.44 157.698 326.133 166.535C303.548 177.028 299.476 178.895 280.632 190.689C257.247 207.281 255.346 208.653 240.677 222.055C219.272 243.587 218.005 244.84 206.351 259.842C187.853 285.926 187.125 286.902 178.11 303.551C163.553 333.216 162.978 334.364 156.566 352.515C146.453 385.341 146.042 386.595 142.446 406.097C137.894 437.615 136.836 445.142 136.588 480.261C138.581 514.833 138.651 515.459 141.87 534.495C148.744 567.123 149.002 568.403 155.048 586.695C166.193 616.692 166.849 618.473 175.712 636.086C190.518 662.765 191.713 664.946 203.755 681.898C220.381 703.263 222.961 706.587 239.753 723.662C256.523 739.175 258.727 741.191 273.75 752.499C288.75 762.921 289.29 763.321 298.79 768.976C311.456 776.067 311.456 776.067 318.306 779.465C328.967 784.452 328.967 784.452 334.433 786.707C343.852 790.449 343.852 790.449 348.567 792.119C357.27 795.081 357.27 795.081 361.622 796.393C370.055 798.817 370.055 798.817 374.278 799.828C382.606 801.821 382.782 801.863 387.099 802.693C395.978 804.344 396.154 804.386 400.753 805.013C410.5 806.264 410.852 806.348 416.155 806.805C439.064 808.364 459.194 808.378 488.547 803.428C505.746 799.697 519.319 796.722 541.341 787.988C563.986 777.848 568.057 775.981 587.194 764.257C610.228 748.256 612.61 746.594 627.501 733.313C649.047 712.018 650.373 710.779 662.191 695.883C680.888 670.05 681.616 669.074 690.854 652.546C705.681 623.081 706.256 621.934 712.832 603.889C723.026 571.962 723.872 569.323 728.08 547.126C733.184 511.885 733.313 511.171 733.931 491.565C733.638 456.723 733.639 456.047 731.37 436.832C726.115 403.712 725.916 402.446 720.843 383.846C710.931 352.452 710.532 351.275 702.691 333.433C688.847 305.157 688.05 303.478 677.147 286.324C663.429 266.805 652.654 251.305 630.76 229.627Z" fill="#F2F2F2"/>
<path d="M263.362 737.565C263.21 737.393 263.057 737.221 262.964 737.064C244.058 725.909 238.018 721.42 226.819 710.284L227.534 711.064C228.402 712.015 229.34 712.916 230.266 713.882C238.487 721.87 249.828 729.861 263.362 737.565ZM366.743 777.594C366.767 777.464 366.72 777.386 366.743 777.256C327.742 766.908 291.135 752.803 263.691 737.441C263.843 737.612 263.996 737.784 264.089 737.942C291.428 753.211 327.871 767.209 366.743 777.594ZM483.74 795.175C483.881 795.073 484.08 794.986 484.221 794.884C475.681 794.735 466.59 794.25 456.889 793.417C427.739 790.838 397.065 785.189 367.752 777.43C367.729 777.559 367.775 777.638 367.752 777.768C396.947 785.499 427.445 791.106 456.537 793.671C466.168 794.555 475.259 795.039 483.74 795.175ZM543.512 787.155L544.439 786.767C529.773 792.052 515.977 794.907 485.125 794.965C484.984 795.067 484.784 795.154 484.643 795.256C510.299 795.51 530.289 792.582 543.512 787.155Z" fill="#F2F2F2"/>
<path d="M139.202 516.132C139.214 516.067 139.167 515.988 139.167 515.988L139.202 516.132ZM214.428 590.96C214.417 590.687 214.417 590.349 214.405 590.075C192.473 577.723 174.248 564.838 161.044 551.937C147.84 539.035 140.759 527.125 139.249 516.549C139.308 516.901 139.319 517.175 139.378 517.527C140.887 528.103 147.921 539.934 161.126 552.836C174.33 565.737 192.496 578.608 214.428 590.96ZM380.877 655.418C380.924 655.159 380.971 654.899 381.03 654.575C318.393 637.894 259.63 615.375 215.519 590.68C215.531 590.954 215.531 591.292 215.542 591.565C259.594 616.246 318.299 638.751 380.877 655.418ZM569.405 683.826C569.51 683.58 569.628 683.27 569.734 683.025C556.067 682.799 541.392 682.06 525.791 680.694C478.927 676.583 429.732 667.448 382.66 655.033C382.613 655.292 382.566 655.552 382.507 655.876C429.52 668.277 478.728 677.347 525.521 681.509C541.063 682.861 555.738 683.599 569.405 683.826ZM682.698 661.08C682.874 660.784 682.98 660.539 683.156 660.243C664.522 675.266 625.736 683.641 571.141 683.024C571.036 683.269 570.918 683.579 570.812 683.824C625.337 684.493 664.064 676.104 682.698 661.08ZM692.051 650.33L692.521 649.427C690.127 652.846 686.547 657.063 683.649 659.887C683.473 660.183 683.367 660.428 683.191 660.725C686.101 657.836 689.88 653.869 692.051 650.33Z" fill="#F2F2F2"/>
<path d="M175.019 320.265C175.195 319.969 175.3 319.723 175.476 319.427C174.775 313.509 175.774 307.998 178.509 303.038L178.039 303.94C175.304 308.9 174.317 314.347 175.019 320.265ZM250.198 394.338C250.315 394.028 250.433 393.718 250.55 393.408C228.677 381.07 210.452 368.184 197.247 355.283C184.043 342.381 177.021 330.486 175.5 319.974C175.324 320.27 175.218 320.516 175.042 320.812C176.551 331.388 183.644 343.233 196.836 356.199C210.041 369.101 228.266 381.986 250.198 394.338ZM416.822 458.838C416.881 458.514 416.94 458.19 416.999 457.865C354.421 441.199 295.716 418.694 251.664 394.013C251.547 394.323 251.429 394.633 251.312 394.943C295.423 419.638 354.174 442.222 416.822 458.838ZM605.526 487.288C605.526 486.949 605.526 486.611 605.527 486.273C591.86 486.047 577.185 485.308 561.642 483.957C514.849 479.794 465.701 470.738 418.688 458.337C418.629 458.661 418.57 458.986 418.512 459.31C465.583 471.725 514.79 480.795 561.642 484.971C577.185 486.323 591.86 487.061 605.526 487.288ZM718.995 464.584C718.937 464.232 718.925 463.958 718.867 463.606C700.232 478.63 661.506 487.019 606.981 486.35C606.981 486.689 606.981 487.027 606.981 487.365C661.517 487.969 700.303 479.594 718.995 464.584ZM731.288 436.948L731.218 436.322C732.528 446.648 728.372 455.733 719.371 463.186C719.43 463.538 719.441 463.811 719.5 464.164C728.5 456.711 732.645 447.691 731.393 437.379L731.288 436.948Z" fill="#F2F2F2"/>
<path d="M307.954 189.515C308.224 189.377 308.494 189.238 308.764 189.1C307.582 179.414 314.025 171.553 326.99 166.199L326.263 166.498L326.004 166.572C313.087 172.004 306.773 179.829 307.954 189.515ZM354.731 235.617C354.954 235.4 355.107 235.233 355.33 235.016C341.725 227.363 330.443 219.386 322.234 211.333C314.025 203.28 309.664 195.945 308.705 189.424C308.435 189.563 308.165 189.701 307.895 189.839C308.843 196.425 313.251 203.839 321.46 211.892C329.739 219.894 341.126 227.964 354.731 235.617ZM458.511 275.809C458.558 275.55 458.664 275.305 458.711 275.045C419.827 264.725 383.443 250.741 356.057 235.393C355.834 235.61 355.681 235.777 355.458 235.994C382.95 251.435 419.51 265.461 458.511 275.809ZM576.036 293.516C575.966 293.229 575.825 292.992 575.755 292.705C567.273 292.569 558.182 292.085 548.481 291.252C519.448 288.701 488.891 283.08 459.696 275.349C459.649 275.608 459.543 275.853 459.496 276.113C488.809 283.872 519.483 289.521 548.633 292.1C558.393 292.947 567.496 293.367 576.036 293.516ZM646.649 279.364C646.45 279.113 646.25 278.862 646.051 278.612C634.446 287.944 610.431 293.156 576.611 292.707C576.681 292.994 576.822 293.231 576.892 293.518C610.9 293.945 635.044 288.696 646.649 279.364ZM643.484 242.819L642.768 242.039C649.464 250 661.846 264.735 646.345 278.344C646.544 278.594 646.743 278.845 646.943 279.095C657.726 270.243 657.309 257.696 643.484 242.819Z" fill="#F2F2F2"/>
<path d="M492.266 165.906C553.963 185.744 606.983 226.101 646.403 278.358C646.602 278.608 646.802 278.859 647.001 279.11C686.327 331.546 712.076 395.752 719.371 463.186C719.43 463.538 719.441 463.811 719.5 464.164C723.054 497.892 721.997 532.411 715.743 566.566C709.478 600.786 698.487 632.048 683.649 659.887C683.473 660.183 683.367 660.428 683.191 660.725C665.841 692.968 643.343 720.53 617.163 742.407L614.288 744.763C641.5 722.592 664.855 694.356 682.686 661.145C682.862 660.849 682.968 660.604 683.144 660.307C697.97 632.534 708.974 601.207 715.239 566.987C721.504 532.767 722.549 498.312 718.995 464.584C718.937 464.232 718.925 463.958 718.867 463.606C711.571 396.172 685.905 331.851 646.649 279.364C646.45 279.113 646.25 278.862 646.051 278.612C606.713 226.24 553.834 185.781 492.266 165.906C492.207 165.892 492.207 165.892 492.149 165.878C492.16 165.813 492.207 165.892 492.266 165.906Z" fill="#F2F2F2"/>
<path d="M492.207 165.892C527.848 191.063 556.771 236.41 576.67 292.721C576.74 293.008 576.881 293.245 576.951 293.532C596.767 349.959 607.511 417.271 606.993 486.286C606.993 486.624 606.993 486.962 606.993 487.3C606.675 521.793 603.518 556.757 597.253 590.977C590.988 625.197 582.096 656.014 571.13 683.088C571.024 683.334 570.906 683.644 570.801 683.889C548.856 737.764 518.693 776.209 485.125 794.965C484.984 795.067 484.784 795.154 484.643 795.256C470.423 803.15 455.57 807.443 440.425 807.945L439.569 807.943C454.631 807.557 469.496 803.199 483.728 795.24C483.869 795.138 484.069 795.051 484.21 794.949C517.532 776.202 547.46 737.7 569.346 683.812C569.452 683.566 569.569 683.256 569.675 683.011C580.571 655.988 589.474 625.105 595.728 590.95C601.993 556.73 605.138 521.831 605.526 487.288C605.526 486.949 605.526 486.611 605.527 486.273C606.174 417.222 595.547 349.938 575.977 293.502C575.907 293.215 575.766 292.978 575.696 292.691C556.103 236.385 527.485 191.043 492.207 165.892Z" fill="#F2F2F2"/>
<path d="M492.149 165.878C484.106 184.586 472.631 223.918 459.755 275.363C459.708 275.622 459.602 275.867 459.555 276.127C446.655 327.701 432.367 391.323 418.688 458.337C418.629 458.661 418.57 458.986 418.512 459.31C411.695 492.857 405.031 527.252 398.766 561.472C392.501 595.691 387.117 627.078 382.719 655.047C382.672 655.307 382.625 655.566 382.566 655.89C373.724 711.75 368.652 753.9 367.799 777.509C367.775 777.638 367.822 777.717 367.799 777.847C367.325 790.925 368.202 798.238 370.477 798.851L370.008 798.738C367.557 798.084 366.504 790.729 366.814 777.543C366.837 777.414 366.79 777.335 366.814 777.205C367.374 753.526 372.222 711.255 380.936 655.432C380.983 655.173 381.03 654.914 381.088 654.589C385.486 626.62 390.824 595.155 397.077 561C403.342 526.78 410.065 492.399 416.94 458.866C416.998 458.542 417.057 458.218 417.116 457.894C430.925 390.842 445.436 327.341 458.57 275.823C458.617 275.564 458.722 275.319 458.769 275.059C471.868 223.736 483.707 184.423 492.149 165.878Z" fill="#F2F2F2"/>
<path d="M492.09 165.864C445.33 169.624 398.045 195.177 356.104 235.472C355.881 235.689 355.728 235.855 355.505 236.073C313.611 276.446 277.073 331.496 251.77 394.105C251.652 394.416 251.535 394.726 251.418 395.036C238.819 426.387 229.011 459.556 222.746 493.776C216.481 527.996 214.252 560.543 215.566 590.759C215.578 591.033 215.578 591.371 215.589 591.644C218.418 651.988 235.596 702.71 263.679 737.505C263.831 737.677 263.984 737.849 264.078 738.007C275.545 752.049 288.773 763.468 303.598 771.818L302.824 771.363C288.011 762.947 274.771 751.593 263.362 737.565C263.21 737.393 263.057 737.221 262.964 737.064C234.658 702.147 217.315 651.319 214.428 590.96C214.417 590.687 214.417 590.349 214.405 590.075C213.032 559.845 215.273 527.233 221.538 493.013C227.803 458.794 237.611 425.624 250.268 394.287C250.386 393.977 250.503 393.667 250.62 393.357C276.029 330.84 312.685 275.819 354.802 235.566C355.025 235.349 355.177 235.182 355.4 234.965C397.482 194.907 445.048 169.489 492.09 165.864Z" fill="#F2F2F2"/>
<path d="M492.043 165.785C427.587 152.389 363.967 162.059 308.763 189.438C308.494 189.577 308.224 189.715 307.954 189.853C252.844 217.39 206.162 262.571 175.558 319.988C175.382 320.284 175.277 320.53 175.1 320.826C159.852 349.581 148.637 381.398 142.383 415.553C136.118 449.773 135.285 483.737 139.261 516.484C139.319 516.836 139.331 517.11 139.39 517.462C139.624 519.209 139.858 520.957 140.103 522.639L139.214 516.067C139.226 516.002 139.179 515.923 139.179 515.923C135.203 483.176 136.048 449.148 142.301 414.993C148.567 380.773 159.77 349.02 175.019 320.265C175.195 319.969 175.3 319.723 175.476 319.427C206.139 262.024 252.797 216.973 307.954 189.515C308.224 189.377 308.494 189.238 308.764 189.1C363.944 161.851 427.611 152.259 492.043 165.785Z" fill="#F2F2F2"/>
<path d="M492.102 165.799C466.837 155.626 428.694 140.206 375.878 151.041L377.532 150.693C413.936 143.304 453.033 147.722 492.102 165.799L492.161 165.813C492.102 165.799 492.102 165.799 492.102 165.799Z" fill="#F2F2F2"/>
<path d="M492.102 165.799C485.701 155.202 478.582 149.574 471.133 148.468L471.673 148.53C479.872 151.236 483.285 152.324 492.102 165.799Z" fill="#F2F2F2"/>
<path d="M492.219 165.827C506.158 160.165 518.651 159.772 529.571 164.009L530.146 164.214C512.117 159.359 507.107 161.001 492.219 165.827Z" fill="#F2F2F2"/>
</g>
<defs>
<radialGradient id="paint0_radial_5405_792" cx="0" cy="0" r="1" gradientUnits="userSpaceOnUse" gradientTransform="translate(428.095 567.417) rotate(90) scale(370.551 349.046)">
<stop offset="0.00520833" stop-color="#D80E35"/>
<stop offset="1" stop-color="#830133"/>
</radialGradient>
</defs>
</svg>
