<svg width="334" height="64" viewBox="0 0 334 64" fill="none" xmlns="http://www.w3.org/2000/svg">
<path d="M321.487 0.900391H333.288L320.788 64.0004H305.688L293.188 0.900391H305.087L313.188 51.9004L321.487 0.900391Z" fill="white"/>
<path d="M292.118 0.900391V9.70039H281.018V64.0004H269.518V9.70039H258.518V0.900391H292.118Z" fill="white"/>
<path d="M227.203 31.8004L241.603 64.0004H228.803L220.903 41.9004L212.903 64.0004H200.603L214.503 31.8004L201.303 0.900391H214.203L220.903 21.7004L227.603 0.900391H240.003L227.203 31.8004Z" fill="white"/>
<path d="M172.731 0.900391H184.931C192.198 0.900391 195.831 4.20039 195.831 10.8004V54.1004C195.831 60.7004 192.198 64.0004 184.931 64.0004H172.731C165.464 64.0004 161.831 60.7004 161.831 54.1004V10.8004C161.831 4.20039 165.464 0.900391 172.731 0.900391ZM184.331 52.5004V12.4004C184.331 11.3337 184.131 10.6337 183.731 10.3004C183.331 9.90039 182.598 9.70039 181.531 9.70039H176.231C175.098 9.70039 174.331 9.90039 173.931 10.3004C173.531 10.6337 173.331 11.3337 173.331 12.4004V52.5004C173.331 53.5671 173.531 54.3004 173.931 54.7004C174.331 55.0337 175.098 55.2004 176.231 55.2004H181.531C182.598 55.2004 183.331 55.0337 183.731 54.7004C184.131 54.3004 184.331 53.5671 184.331 52.5004Z" fill="white"/>
<path d="M156.503 9.70039H137.503V28.9004H153.003V37.3004H137.503V64.0004H125.903V0.900391H156.503V9.70039Z" fill="white"/>
<path d="M81.7744 0.900391H105.774C113.041 0.900391 116.674 4.20039 116.674 10.8004V54.1004C116.674 60.7004 113.041 64.0004 105.774 64.0004H81.7744V0.900391ZM105.074 52.9004V12.0004C105.074 10.9337 104.874 10.2337 104.474 9.90039C104.074 9.50039 103.341 9.30039 102.274 9.30039H93.2744V55.6004H102.274C103.341 55.6004 104.074 55.4337 104.474 55.1004C104.874 54.7004 105.074 53.9671 105.074 52.9004Z" fill="white"/>
<path d="M55.4721 55.2004H74.6721V64.0004H43.8721V0.900391H73.8721V9.70039H55.4721V27.2004H70.9721V36.1004H55.4721V55.2004Z" fill="white"/>
<path d="M12.4033 39.4004V64.0004H0.90332V0.900391H24.1033C31.37 0.900391 35.0033 4.20039 35.0033 10.8004V29.5004C35.0033 34.9671 32.57 38.1671 27.7033 39.1004L38.2033 64.0004H25.8033L16.2033 39.4004H12.4033ZM12.4033 9.70039V30.9004H20.7033C21.77 30.9004 22.5033 30.7337 22.9033 30.4004C23.3033 30.0004 23.5033 29.2671 23.5033 28.2004V12.4004C23.5033 11.3337 23.3033 10.6337 22.9033 10.3004C22.5033 9.90039 21.77 9.70039 20.7033 9.70039H12.4033Z" fill="white"/>
</svg>
