<svg width="86" height="86" viewBox="0 0 86 86" fill="none" xmlns="http://www.w3.org/2000/svg">
<path d="M4.72924 67.4897C4.06068 66.8211 3.04113 66.6205 2.15529 66.9715C1.26945 67.3393 0.701172 68.1918 0.701172 69.1447V83.2369C0.701172 84.1731 1.26945 84.9755 2.10514 85.3934C3.09127 85.8782 4.19439 85.3934 4.64567 84.9922L12.0332 78.3055C12.5179 77.8709 12.7854 77.2691 12.8021 76.6171C12.8188 75.9651 12.5681 75.3466 12.1168 74.8953L4.72924 67.4897ZM5.41451 77.9377V74.8618L7.03576 76.4834L5.41451 77.9377Z" fill="#333333"/>
<path d="M83.2514 73.8421H38.7756C37.4719 73.8421 36.4189 74.8953 36.4189 76.1992C36.4189 77.5031 37.4719 78.5562 38.7756 78.5562H83.2514C84.5551 78.5562 85.6081 77.5031 85.6081 76.1992C85.6081 74.912 84.5551 73.8421 83.2514 73.8421Z" fill="#333333"/>
<path d="M30.8364 67.8408C29.5328 67.8408 28.4798 68.8939 28.4798 70.1979V73.8421H18.9361C17.6324 73.8421 16.5794 74.8953 16.5794 76.1992C16.5794 77.5031 17.6324 78.5562 18.9361 78.5562H28.4798V82.2005C28.4798 83.5044 29.5328 84.5576 30.8364 84.5576C32.1401 84.5576 33.1931 83.5044 33.1931 82.2005V70.1811C33.1931 68.8939 32.1401 67.8408 30.8364 67.8408Z" fill="#333333"/>
<path d="M83.2514 0.689453H3.05784C1.75415 0.689453 0.701172 1.74261 0.701172 3.04652V61.6556C0.701172 62.9595 1.75415 64.0126 3.05784 64.0126H83.2514C84.5551 64.0126 85.6081 62.9595 85.6081 61.6556V3.04652C85.6081 1.74261 84.5551 0.689453 83.2514 0.689453ZM80.8948 59.2985H5.41451V23.3574H10.4454C11.7491 23.3574 12.8021 22.3043 12.8021 21.0003C12.8021 19.6964 11.7491 18.6433 10.4454 18.6433H5.41451V14.1632H15.1587C16.4624 14.1632 17.5154 13.11 17.5154 11.8061C17.5154 10.5022 16.4624 9.44905 15.1587 9.44905H5.41451V5.40359H80.8948V59.2985Z" fill="#333333"/>
<path d="M43.1546 49.5526C52.6315 49.5526 60.3533 41.8295 60.3533 32.351C60.3533 22.8726 52.6315 15.1495 43.1546 15.1495C33.6778 15.1495 25.956 22.8726 25.956 32.351C25.956 41.8462 33.6778 49.5526 43.1546 49.5526ZM43.1546 19.8636C50.0408 19.8636 55.64 25.4637 55.64 32.351C55.64 39.2384 50.0408 44.8385 43.1546 44.8385C36.2685 44.8385 30.6693 39.2384 30.6693 32.351C30.6693 25.4637 36.2685 19.8636 43.1546 19.8636Z" fill="#333333"/>
<path d="M38.4246 39.2885C39.7283 39.2885 40.7813 38.2354 40.7813 36.9314V27.7706C40.7813 26.4667 39.7283 25.4136 38.4246 25.4136C37.1209 25.4136 36.0679 26.4667 36.0679 27.7706V36.9314C36.0512 38.2354 37.1209 39.2885 38.4246 39.2885Z" fill="#333333"/>
<path d="M47.8847 39.2885C49.1884 39.2885 50.2414 38.2354 50.2414 36.9314V27.7706C50.2414 26.4667 49.1884 25.4136 47.8847 25.4136C46.581 25.4136 45.528 26.4667 45.528 27.7706V36.9314C45.528 38.2354 46.581 39.2885 47.8847 39.2885Z" fill="#333333"/>
</svg>
