<svg width="86" height="86" viewBox="0 0 86 86" fill="none" xmlns="http://www.w3.org/2000/svg">
<path d="M43.603 85.5964C43.4109 85.5964 43.2173 85.5877 43.0216 85.5704C32.155 84.6136 21.908 79.8243 14.1683 72.0844C6.42813 64.3442 1.63862 54.0964 0.682225 43.229C0.525764 41.4583 1.07834 39.8298 2.28055 38.5206C3.46907 37.2173 5.04292 36.525 6.82613 36.525H15.42C18.3465 36.525 20.8249 38.5239 21.4472 41.3861L22.9822 48.5407C23.4243 50.5966 22.8334 52.6398 21.3607 54.1453L20.195 55.3335C22.849 59.7406 26.509 63.4017 30.9149 66.0574L32.1 64.8948C33.6175 63.4183 35.6613 62.8293 37.7138 63.2713L44.8553 64.8044C47.7233 65.4177 49.7277 67.8969 49.7277 70.8329V79.4266C49.7277 81.1987 49.0359 82.7707 47.7271 83.9724C46.5538 85.0424 45.1391 85.5962 43.603 85.5964ZM6.82613 41.6606C6.49609 41.6606 6.28383 41.7524 6.06916 41.9878C5.84372 42.2334 5.76925 42.4532 5.79801 42.778C7.56393 62.844 23.4089 78.689 43.4741 80.4547H43.4761C43.7959 80.4835 44.0153 80.4072 44.2605 80.1836C44.4976 79.966 44.5924 79.752 44.5924 79.4266V70.8329C44.5924 70.3267 44.2733 69.9315 43.7794 69.8258L36.6346 68.292C36.2594 68.2112 35.9679 68.2965 35.6887 68.5682L33.1345 71.0741C32.338 71.8556 31.1277 72.0331 30.1405 71.5135C23.5375 68.0389 18.2116 62.7113 14.739 56.1069C14.2198 55.1195 14.3975 53.91 15.1788 53.1138L17.6924 50.5515C17.9578 50.2804 18.0415 49.9919 17.9614 49.6191L16.4276 42.4702C16.3213 41.9811 15.9252 41.6606 15.4202 41.6606H6.82613ZM46.3309 48.3272C46.3309 46.9091 45.1813 45.7594 43.7632 45.7594H37.053V43.3776C37.053 42.2355 37.9822 41.3063 39.1243 41.3063C43.2327 41.3063 46.3311 38.0725 46.3311 33.7842C46.3311 29.8104 43.0981 26.5776 39.1243 26.5776H34.4853C33.0672 26.5776 31.9175 27.7272 31.9175 29.1453C31.9175 30.5634 33.0672 31.7131 34.4853 31.7131H39.1243C40.2664 31.7131 41.1956 32.6422 41.1956 33.7842C41.1956 34.8852 40.6531 36.1708 39.1243 36.1708C35.1505 36.1708 31.9175 39.4038 31.9175 43.3776V48.3272C31.9175 49.7453 33.0672 50.8949 34.4853 50.8949H43.7632C45.1813 50.8949 46.3309 49.7453 46.3309 48.3272ZM63.9357 48.3272V29.1453C63.9357 27.7272 62.786 26.5776 61.3679 26.5776C59.9498 26.5776 58.8002 27.7272 58.8002 29.1453V36.171H54.9133L55.9652 29.5481C56.1876 28.1475 55.2326 26.8318 53.8321 26.6094C52.4313 26.3867 51.1158 27.3421 50.8934 28.7425L49.3697 38.3359C49.252 39.078 49.4649 39.8345 49.9528 40.4059C50.4407 40.9773 51.1543 41.3065 51.9056 41.3065H58.8002V48.3272C58.8002 49.7453 59.9498 50.8949 61.3679 50.8949C62.786 50.8949 63.9357 49.7453 63.9357 48.3272ZM58.6562 75.7145C66.292 73.3229 73.1456 68.4589 77.955 62.0184C82.9323 55.3529 85.5632 47.4203 85.5632 39.0784C85.5632 28.8242 81.5702 19.184 74.3194 11.9334C67.0686 4.6828 57.4285 0.689453 47.1745 0.689453C38.8324 0.689453 30.8992 3.32036 24.2323 8.29767C17.79 13.1072 12.925 19.961 10.5336 27.5966C10.1098 28.95 10.8631 30.3907 12.2165 30.8145C13.5699 31.2385 15.0105 30.485 15.4344 29.1316C19.8007 15.1912 32.556 5.8251 47.1745 5.8251C65.5105 5.8251 80.4277 20.7425 80.4277 39.0784C80.4277 53.6939 71.0615 66.4475 57.1212 70.8137C55.768 71.2376 55.0145 72.6783 55.4383 74.0316C55.7822 75.1296 56.7953 75.8326 57.888 75.8326C58.1422 75.8326 58.4008 75.7946 58.6562 75.7147V75.7145Z" fill="#333333"/>
</svg>
