<svg width="40" height="30" viewBox="0 0 40 30" fill="none" xmlns="http://www.w3.org/2000/svg">
<path d="M39.9434 0H0V25.7448H6.29803L4.80436 28.7321L6.89773 29.7787L8.91471 25.7448H31.0286L33.0456 29.7787L35.139 28.7321L33.6453 25.7448H39.9434V0ZM37.603 23.4043H2.34043V2.34043H37.603V23.4043Z" fill="#DB0E35"/>
<path d="M21.2199 19.8937C21.2199 12.7959 26.9945 7.0213 34.0923 7.0213H35.2625V4.68087H34.0923C25.704 4.68087 18.8795 11.5053 18.8795 19.8937V21.0639H21.2199V19.8937Z" fill="#DB0E35"/>
<path d="M23.5604 19.8937V21.0639H25.9008V19.8937C25.9008 15.3769 29.5755 11.7022 34.0923 11.7022H35.2625V9.36173H34.0923C28.285 9.36173 23.5604 14.0864 23.5604 19.8937Z" fill="#DB0E35"/>
<path d="M28.2412 19.8937V21.0639H30.5817V19.8937C30.5817 17.9579 32.1565 16.383 34.0923 16.383H35.2625V14.0426H34.0923C30.866 14.0426 28.2412 16.6674 28.2412 19.8937Z" fill="#DB0E35"/>
<path d="M32.9221 18.7235H35.2625V21.0639H32.9221V18.7235Z" fill="#DB0E35"/>
</svg>
