<svg width="25" height="19" viewBox="0 0 25 19" fill="none" xmlns="http://www.w3.org/2000/svg">
<path d="M24.9299 0H0.0703125V16.0228H3.99002L3.06041 17.882L4.36326 18.5334L5.61857 16.0228H19.3816L20.6369 18.5334L21.9398 17.882L21.0102 16.0228H24.9299V0ZM23.4733 14.5662H1.52693V1.45662H23.4733V14.5662Z" fill="white"/>
<path d="M13.277 12.3813C13.277 7.96377 16.8709 4.36985 21.2884 4.36985H22.0167V2.91324H21.2884C16.0677 2.91324 11.8204 7.16059 11.8204 12.3813V13.1096H13.277V12.3813Z" fill="white"/>
<path d="M14.7336 12.3813V13.1096H16.1902V12.3813C16.1902 9.57013 18.4773 7.28309 21.2884 7.28309H22.0167V5.82647H21.2884C17.6741 5.82647 14.7336 8.76695 14.7336 12.3813Z" fill="white"/>
<path d="M17.6468 12.3813V13.1096H19.1035V12.3813C19.1035 11.1765 20.0836 10.1963 21.2884 10.1963H22.0167V8.73971H21.2884C19.2804 8.73971 17.6468 10.3733 17.6468 12.3813Z" fill="white"/>
<path d="M20.5601 11.6529H22.0167V13.1096H20.5601V11.6529Z" fill="white"/>
</svg>
